<mxfile host="app.diagrams.net" modified="2024-03-03T10:31:11.251Z" agent="Mozilla/5.0 (Windows NT 10.0; Win64; x64) AppleWebKit/537.36 (KHTML, like Gecko) Chrome/122.0.0.0 Safari/537.36" etag="pSphO8tMdfnS8W4uFIps" version="24.0.0" type="device">
  <diagram name="Page-1" id="F1xub6IjWeHXtU8mUse0">
    <mxGraphModel dx="2390" dy="1230" grid="1" gridSize="10" guides="1" tooltips="1" connect="1" arrows="1" fold="1" page="1" pageScale="1" pageWidth="1654" pageHeight="2336" math="0" shadow="0">
      <root>
        <mxCell id="0" />
        <mxCell id="1" parent="0" />
        <mxCell id="xBXIBfyzmno2x9TjSAHg-122" style="edgeStyle=orthogonalEdgeStyle;rounded=0;orthogonalLoop=1;jettySize=auto;html=1;entryX=-0.174;entryY=1.16;entryDx=0;entryDy=0;entryPerimeter=0;" edge="1" parent="1" source="xBXIBfyzmno2x9TjSAHg-117" target="xBXIBfyzmno2x9TjSAHg-48">
          <mxGeometry relative="1" as="geometry">
            <Array as="points">
              <mxPoint x="543" y="1070" />
              <mxPoint x="870" y="1070" />
            </Array>
          </mxGeometry>
        </mxCell>
        <mxCell id="xBXIBfyzmno2x9TjSAHg-101" style="edgeStyle=orthogonalEdgeStyle;rounded=0;orthogonalLoop=1;jettySize=auto;html=1;entryX=0.939;entryY=0.824;entryDx=0;entryDy=0;entryPerimeter=0;startArrow=classic;startFill=1;" edge="1" parent="1" source="xBXIBfyzmno2x9TjSAHg-78" target="xBXIBfyzmno2x9TjSAHg-48">
          <mxGeometry relative="1" as="geometry">
            <Array as="points">
              <mxPoint x="1036" y="1046" />
            </Array>
          </mxGeometry>
        </mxCell>
        <mxCell id="xpohgX7cxrmQHjnJIRxA-4" value="DNS" style="image;aspect=fixed;html=1;points=[];align=center;fontSize=12;image=img/lib/azure2/networking/DNS_Zones.svg;" parent="1" vertex="1">
          <mxGeometry x="1134" y="273" width="64" height="64" as="geometry" />
        </mxCell>
        <mxCell id="xBXIBfyzmno2x9TjSAHg-37" value="" style="edgeStyle=orthogonalEdgeStyle;rounded=0;orthogonalLoop=1;jettySize=auto;html=1;entryX=0.5;entryY=0;entryDx=0;entryDy=0;" edge="1" parent="1" source="xpohgX7cxrmQHjnJIRxA-5" target="xBXIBfyzmno2x9TjSAHg-9">
          <mxGeometry relative="1" as="geometry" />
        </mxCell>
        <mxCell id="xpohgX7cxrmQHjnJIRxA-5" value="Microsoft Entra" style="image;aspect=fixed;html=1;points=[];align=center;fontSize=12;image=img/lib/azure2/identity/Azure_Active_Directory.svg;" parent="1" vertex="1">
          <mxGeometry x="878" y="140" width="70" height="64" as="geometry" />
        </mxCell>
        <mxCell id="xBXIBfyzmno2x9TjSAHg-35" value="" style="edgeStyle=orthogonalEdgeStyle;rounded=0;orthogonalLoop=1;jettySize=auto;html=1;" edge="1" parent="1" source="xpohgX7cxrmQHjnJIRxA-12" target="xBXIBfyzmno2x9TjSAHg-2">
          <mxGeometry relative="1" as="geometry" />
        </mxCell>
        <mxCell id="xpohgX7cxrmQHjnJIRxA-12" value="Application Gateway" style="image;aspect=fixed;html=1;points=[];align=center;fontSize=12;image=img/lib/azure2/networking/Application_Gateways.svg;" parent="1" vertex="1">
          <mxGeometry x="445" y="510" width="64" height="64" as="geometry" />
        </mxCell>
        <mxCell id="xBXIBfyzmno2x9TjSAHg-8" value="WAF" style="image;aspect=fixed;html=1;points=[];align=center;fontSize=12;image=img/lib/azure2/networking/Web_Application_Firewall_Policies_WAF.svg;" vertex="1" parent="1">
          <mxGeometry x="842" y="260" width="65" height="65" as="geometry" />
        </mxCell>
        <mxCell id="xBXIBfyzmno2x9TjSAHg-10" value="" style="rounded=0;orthogonalLoop=1;jettySize=auto;html=1;startArrow=classic;startFill=1;" edge="1" parent="1" source="xBXIBfyzmno2x9TjSAHg-9" target="xpohgX7cxrmQHjnJIRxA-4">
          <mxGeometry relative="1" as="geometry" />
        </mxCell>
        <mxCell id="xBXIBfyzmno2x9TjSAHg-102" style="edgeStyle=orthogonalEdgeStyle;rounded=0;orthogonalLoop=1;jettySize=auto;html=1;entryX=0.5;entryY=0;entryDx=0;entryDy=0;" edge="1" parent="1" source="xBXIBfyzmno2x9TjSAHg-9" target="xBXIBfyzmno2x9TjSAHg-71">
          <mxGeometry relative="1" as="geometry" />
        </mxCell>
        <mxCell id="xBXIBfyzmno2x9TjSAHg-103" style="edgeStyle=orthogonalEdgeStyle;rounded=0;orthogonalLoop=1;jettySize=auto;html=1;entryX=0.5;entryY=0;entryDx=0;entryDy=0;" edge="1" parent="1" source="xBXIBfyzmno2x9TjSAHg-9" target="xpohgX7cxrmQHjnJIRxA-10">
          <mxGeometry relative="1" as="geometry" />
        </mxCell>
        <mxCell id="xBXIBfyzmno2x9TjSAHg-9" value="" style="swimlane;startSize=0;fillColor=#d5e8d4;strokeColor=#82b366;swimlaneFillColor=none;gradientColor=none;perimeterSpacing=0;" vertex="1" parent="1">
          <mxGeometry x="813" y="250" width="200" height="110" as="geometry" />
        </mxCell>
        <object label="Front Door" id="xpohgX7cxrmQHjnJIRxA-3">
          <mxCell style="image;aspect=fixed;html=1;points=[];align=center;fontSize=12;image=img/lib/azure2/networking/Front_Doors.svg;" parent="xBXIBfyzmno2x9TjSAHg-9" vertex="1">
            <mxGeometry x="106" y="14" width="68" height="60" as="geometry" />
          </mxCell>
        </object>
        <mxCell id="xBXIBfyzmno2x9TjSAHg-19" style="edgeStyle=orthogonalEdgeStyle;rounded=0;orthogonalLoop=1;jettySize=auto;html=1;entryX=-0.076;entryY=0.492;entryDx=0;entryDy=0;entryPerimeter=0;" edge="1" parent="1" source="xBXIBfyzmno2x9TjSAHg-6" target="xBXIBfyzmno2x9TjSAHg-2">
          <mxGeometry relative="1" as="geometry" />
        </mxCell>
        <mxCell id="xBXIBfyzmno2x9TjSAHg-42" style="edgeStyle=orthogonalEdgeStyle;rounded=0;orthogonalLoop=1;jettySize=auto;html=1;entryX=-0.006;entryY=0.496;entryDx=0;entryDy=0;entryPerimeter=0;" edge="1" parent="1" source="xpohgX7cxrmQHjnJIRxA-19" target="xpohgX7cxrmQHjnJIRxA-5">
          <mxGeometry relative="1" as="geometry">
            <Array as="points">
              <mxPoint x="816" y="172" />
            </Array>
          </mxGeometry>
        </mxCell>
        <mxCell id="xpohgX7cxrmQHjnJIRxA-19" value="Mobile App" style="verticalLabelPosition=bottom;html=1;verticalAlign=top;align=center;strokeColor=none;fillColor=#00BEF2;shape=mxgraph.azure.mobile;pointerEvents=1;fontFamily=Helvetica;fontSize=12;fontColor=default;labelBackgroundColor=default;" parent="1" vertex="1">
          <mxGeometry x="798" y="41" width="35" height="50" as="geometry" />
        </mxCell>
        <mxCell id="xBXIBfyzmno2x9TjSAHg-44" style="edgeStyle=orthogonalEdgeStyle;rounded=0;orthogonalLoop=1;jettySize=auto;html=1;entryX=0;entryY=0.5;entryDx=0;entryDy=0;entryPerimeter=0;startArrow=classic;startFill=1;dashed=1;" edge="1" parent="1" source="xpohgX7cxrmQHjnJIRxA-18" target="xpohgX7cxrmQHjnJIRxA-19">
          <mxGeometry relative="1" as="geometry">
            <Array as="points">
              <mxPoint x="282" y="851" />
              <mxPoint x="282" y="66" />
            </Array>
          </mxGeometry>
        </mxCell>
        <mxCell id="xBXIBfyzmno2x9TjSAHg-52" style="edgeStyle=orthogonalEdgeStyle;rounded=0;orthogonalLoop=1;jettySize=auto;html=1;" edge="1" parent="1" source="xBXIBfyzmno2x9TjSAHg-48" target="xBXIBfyzmno2x9TjSAHg-1">
          <mxGeometry relative="1" as="geometry" />
        </mxCell>
        <mxCell id="xBXIBfyzmno2x9TjSAHg-87" style="edgeStyle=orthogonalEdgeStyle;rounded=0;orthogonalLoop=1;jettySize=auto;html=1;" edge="1" parent="1" source="xBXIBfyzmno2x9TjSAHg-48" target="xBXIBfyzmno2x9TjSAHg-79">
          <mxGeometry relative="1" as="geometry" />
        </mxCell>
        <mxCell id="xBXIBfyzmno2x9TjSAHg-113" style="edgeStyle=orthogonalEdgeStyle;rounded=0;orthogonalLoop=1;jettySize=auto;html=1;entryX=0.5;entryY=1;entryDx=0;entryDy=0;" edge="1" parent="1" source="xBXIBfyzmno2x9TjSAHg-48" target="xBXIBfyzmno2x9TjSAHg-13">
          <mxGeometry relative="1" as="geometry">
            <Array as="points">
              <mxPoint x="728" y="1024" />
            </Array>
          </mxGeometry>
        </mxCell>
        <mxCell id="xBXIBfyzmno2x9TjSAHg-114" style="edgeStyle=orthogonalEdgeStyle;rounded=0;orthogonalLoop=1;jettySize=auto;html=1;entryX=0.5;entryY=1;entryDx=0;entryDy=0;" edge="1" parent="1" source="xBXIBfyzmno2x9TjSAHg-48" target="xBXIBfyzmno2x9TjSAHg-73">
          <mxGeometry relative="1" as="geometry" />
        </mxCell>
        <mxCell id="xBXIBfyzmno2x9TjSAHg-48" value="SQL Elastic Pools" style="image;aspect=fixed;html=1;points=[];align=center;fontSize=12;image=img/lib/azure2/databases/SQL_Elastic_Pools.svg;" vertex="1" parent="1">
          <mxGeometry x="882" y="990" width="68" height="68" as="geometry" />
        </mxCell>
        <mxCell id="xBXIBfyzmno2x9TjSAHg-51" style="edgeStyle=orthogonalEdgeStyle;rounded=0;orthogonalLoop=1;jettySize=auto;html=1;entryX=-0.069;entryY=0.277;entryDx=0;entryDy=0;entryPerimeter=0;" edge="1" parent="1" source="xBXIBfyzmno2x9TjSAHg-2" target="xBXIBfyzmno2x9TjSAHg-48">
          <mxGeometry relative="1" as="geometry">
            <Array as="points">
              <mxPoint x="492" y="1009" />
            </Array>
          </mxGeometry>
        </mxCell>
        <mxCell id="xBXIBfyzmno2x9TjSAHg-57" style="edgeStyle=orthogonalEdgeStyle;rounded=0;orthogonalLoop=1;jettySize=auto;html=1;entryX=-0.09;entryY=0.824;entryDx=0;entryDy=0;entryPerimeter=0;endArrow=classic;endFill=1;startArrow=classic;startFill=1;" edge="1" parent="1" source="xpohgX7cxrmQHjnJIRxA-18" target="xBXIBfyzmno2x9TjSAHg-48">
          <mxGeometry relative="1" as="geometry">
            <Array as="points">
              <mxPoint x="342" y="1046" />
            </Array>
          </mxGeometry>
        </mxCell>
        <mxCell id="xBXIBfyzmno2x9TjSAHg-58" style="edgeStyle=orthogonalEdgeStyle;rounded=0;orthogonalLoop=1;jettySize=auto;html=1;entryX=-0.048;entryY=0.397;entryDx=0;entryDy=0;entryPerimeter=0;" edge="1" parent="1" source="xBXIBfyzmno2x9TjSAHg-2" target="xBXIBfyzmno2x9TjSAHg-13">
          <mxGeometry relative="1" as="geometry">
            <Array as="points">
              <mxPoint x="653" y="670" />
            </Array>
          </mxGeometry>
        </mxCell>
        <mxCell id="xBXIBfyzmno2x9TjSAHg-61" style="edgeStyle=orthogonalEdgeStyle;rounded=0;orthogonalLoop=1;jettySize=auto;html=1;entryX=0.163;entryY=1.011;entryDx=0;entryDy=0;entryPerimeter=0;" edge="1" parent="1" source="xBXIBfyzmno2x9TjSAHg-1" target="xBXIBfyzmno2x9TjSAHg-2">
          <mxGeometry relative="1" as="geometry" />
        </mxCell>
        <mxCell id="xBXIBfyzmno2x9TjSAHg-2" value="Azure App Service" style="image;aspect=fixed;html=1;points=[];align=center;fontSize=12;image=img/lib/azure2/app_services/App_Service_Environments.svg;" vertex="1" parent="1">
          <mxGeometry x="444" y="657" width="64" height="64" as="geometry" />
        </mxCell>
        <mxCell id="xBXIBfyzmno2x9TjSAHg-71" value="Standby region" style="swimlane;whiteSpace=wrap;html=1;startSize=23;dashed=1;align=right;" vertex="1" parent="1">
          <mxGeometry x="972" y="470" width="480" height="500" as="geometry">
            <mxRectangle x="60" y="370" width="140" height="30" as="alternateBounds" />
          </mxGeometry>
        </mxCell>
        <mxCell id="xBXIBfyzmno2x9TjSAHg-72" value="Key Vault" style="image;aspect=fixed;html=1;points=[];align=center;fontSize=12;image=img/lib/azure2/security/Key_Vaults.svg;" vertex="1" parent="xBXIBfyzmno2x9TjSAHg-71">
          <mxGeometry x="30.000000000000014" y="185" width="68" height="68" as="geometry" />
        </mxCell>
        <mxCell id="xBXIBfyzmno2x9TjSAHg-73" value="" style="swimlane;startSize=0;" vertex="1" parent="xBXIBfyzmno2x9TjSAHg-71">
          <mxGeometry x="310" y="80" width="136" height="350" as="geometry" />
        </mxCell>
        <mxCell id="xBXIBfyzmno2x9TjSAHg-74" value="Insights" style="image;aspect=fixed;html=1;points=[];align=center;fontSize=12;image=img/lib/azure2/devops/Application_Insights.svg;strokeColor=default;verticalAlign=top;fontFamily=Helvetica;fontColor=default;labelBackgroundColor=default;fillColor=default;" vertex="1" parent="xBXIBfyzmno2x9TjSAHg-73">
          <mxGeometry x="41" y="20" width="44" height="63" as="geometry" />
        </mxCell>
        <mxCell id="xBXIBfyzmno2x9TjSAHg-75" value="Monitor" style="image;aspect=fixed;html=1;points=[];align=center;fontSize=12;image=img/lib/azure2/management_governance/Monitor.svg;strokeColor=default;verticalAlign=top;fontFamily=Helvetica;fontColor=default;labelBackgroundColor=default;fillColor=default;" vertex="1" parent="xBXIBfyzmno2x9TjSAHg-73">
          <mxGeometry x="31" y="139.5" width="64" height="64" as="geometry" />
        </mxCell>
        <mxCell id="xBXIBfyzmno2x9TjSAHg-76" value="Log Analytics" style="image;aspect=fixed;html=1;points=[];align=center;fontSize=12;image=img/lib/azure2/analytics/Log_Analytics_Workspaces.svg;" vertex="1" parent="xBXIBfyzmno2x9TjSAHg-73">
          <mxGeometry x="41" y="249.5" width="64" height="64" as="geometry" />
        </mxCell>
        <mxCell id="xBXIBfyzmno2x9TjSAHg-79" value="Azure Cache&amp;nbsp;&lt;div&gt;for Redis&lt;/div&gt;" style="image;aspect=fixed;html=1;points=[];align=center;fontSize=12;image=img/lib/azure2/databases/Cache_Redis.svg;" vertex="1" parent="xBXIBfyzmno2x9TjSAHg-71">
          <mxGeometry x="145.22999999999996" y="360" width="52.31" height="42.5" as="geometry" />
        </mxCell>
        <mxCell id="xBXIBfyzmno2x9TjSAHg-99" style="edgeStyle=orthogonalEdgeStyle;rounded=0;orthogonalLoop=1;jettySize=auto;html=1;endArrow=none;endFill=0;dashed=1;" edge="1" parent="xBXIBfyzmno2x9TjSAHg-71" source="xBXIBfyzmno2x9TjSAHg-78">
          <mxGeometry relative="1" as="geometry">
            <mxPoint y="381.25" as="targetPoint" />
          </mxGeometry>
        </mxCell>
        <mxCell id="xBXIBfyzmno2x9TjSAHg-78" value="Offline sync" style="verticalLabelPosition=bottom;html=1;verticalAlign=top;align=center;strokeColor=none;fillColor=#00BEF2;shape=mxgraph.azure.sql_datasync;fontFamily=Helvetica;fontSize=12;fontColor=default;labelBackgroundColor=default;" vertex="1" parent="xBXIBfyzmno2x9TjSAHg-71">
          <mxGeometry x="45.250000000000014" y="356.25" width="37.5" height="50" as="geometry" />
        </mxCell>
        <mxCell id="xBXIBfyzmno2x9TjSAHg-125" style="edgeStyle=orthogonalEdgeStyle;rounded=0;orthogonalLoop=1;jettySize=auto;html=1;" edge="1" parent="xBXIBfyzmno2x9TjSAHg-71" source="xBXIBfyzmno2x9TjSAHg-123">
          <mxGeometry relative="1" as="geometry">
            <mxPoint x="-10" y="600" as="targetPoint" />
            <Array as="points">
              <mxPoint x="260" y="600" />
            </Array>
          </mxGeometry>
        </mxCell>
        <mxCell id="xBXIBfyzmno2x9TjSAHg-123" value="Azure&amp;nbsp;&lt;div&gt;AI Search&lt;/div&gt;" style="image;aspect=fixed;html=1;points=[];align=center;fontSize=12;image=img/lib/azure2/app_services/Search_Services.svg;" vertex="1" parent="xBXIBfyzmno2x9TjSAHg-71">
          <mxGeometry x="230" y="360" width="68" height="49.120000000000005" as="geometry" />
        </mxCell>
        <mxCell id="xBXIBfyzmno2x9TjSAHg-80" value="" style="edgeStyle=orthogonalEdgeStyle;rounded=0;orthogonalLoop=1;jettySize=auto;html=1;" edge="1" parent="1" source="xBXIBfyzmno2x9TjSAHg-81" target="xBXIBfyzmno2x9TjSAHg-86">
          <mxGeometry relative="1" as="geometry" />
        </mxCell>
        <mxCell id="xBXIBfyzmno2x9TjSAHg-81" value="Application Gateway" style="image;aspect=fixed;html=1;points=[];align=center;fontSize=12;image=img/lib/azure2/networking/Application_Gateways.svg;" vertex="1" parent="1">
          <mxGeometry x="1135" y="510" width="64" height="64" as="geometry" />
        </mxCell>
        <mxCell id="xBXIBfyzmno2x9TjSAHg-82" style="edgeStyle=orthogonalEdgeStyle;rounded=0;orthogonalLoop=1;jettySize=auto;html=1;entryX=-0.076;entryY=0.492;entryDx=0;entryDy=0;entryPerimeter=0;" edge="1" parent="1" source="xBXIBfyzmno2x9TjSAHg-72" target="xBXIBfyzmno2x9TjSAHg-86">
          <mxGeometry relative="1" as="geometry" />
        </mxCell>
        <mxCell id="xBXIBfyzmno2x9TjSAHg-83" style="edgeStyle=orthogonalEdgeStyle;rounded=0;orthogonalLoop=1;jettySize=auto;html=1;entryX=-0.048;entryY=0.397;entryDx=0;entryDy=0;entryPerimeter=0;" edge="1" parent="1" source="xBXIBfyzmno2x9TjSAHg-86" target="xBXIBfyzmno2x9TjSAHg-73">
          <mxGeometry relative="1" as="geometry" />
        </mxCell>
        <mxCell id="xBXIBfyzmno2x9TjSAHg-85" style="edgeStyle=orthogonalEdgeStyle;rounded=0;orthogonalLoop=1;jettySize=auto;html=1;entryX=0.163;entryY=1.011;entryDx=0;entryDy=0;entryPerimeter=0;" edge="1" parent="1" source="xBXIBfyzmno2x9TjSAHg-79" target="xBXIBfyzmno2x9TjSAHg-86">
          <mxGeometry relative="1" as="geometry" />
        </mxCell>
        <mxCell id="xBXIBfyzmno2x9TjSAHg-94" style="edgeStyle=orthogonalEdgeStyle;rounded=0;orthogonalLoop=1;jettySize=auto;html=1;entryX=0;entryY=0.5;entryDx=0;entryDy=0;dashed=1;" edge="1" parent="1" source="xpohgX7cxrmQHjnJIRxA-10" target="xBXIBfyzmno2x9TjSAHg-71">
          <mxGeometry relative="1" as="geometry" />
        </mxCell>
        <mxCell id="xBXIBfyzmno2x9TjSAHg-97" value="Geo-replication" style="edgeLabel;html=1;align=center;verticalAlign=middle;resizable=0;points=[];" vertex="1" connectable="0" parent="xBXIBfyzmno2x9TjSAHg-94">
          <mxGeometry x="-0.0786" relative="1" as="geometry">
            <mxPoint as="offset" />
          </mxGeometry>
        </mxCell>
        <mxCell id="xpohgX7cxrmQHjnJIRxA-10" value="Active region" style="swimlane;whiteSpace=wrap;html=1;startSize=23;dashed=1;align=right;" parent="1" vertex="1">
          <mxGeometry x="202" y="470" width="650" height="500" as="geometry">
            <mxRectangle x="60" y="370" width="140" height="30" as="alternateBounds" />
          </mxGeometry>
        </mxCell>
        <mxCell id="xBXIBfyzmno2x9TjSAHg-6" value="Key Vault" style="image;aspect=fixed;html=1;points=[];align=center;fontSize=12;image=img/lib/azure2/security/Key_Vaults.svg;" vertex="1" parent="xpohgX7cxrmQHjnJIRxA-10">
          <mxGeometry x="110.00000000000001" y="185" width="68" height="68" as="geometry" />
        </mxCell>
        <mxCell id="xBXIBfyzmno2x9TjSAHg-13" value="" style="swimlane;startSize=0;" vertex="1" parent="xpohgX7cxrmQHjnJIRxA-10">
          <mxGeometry x="457.46" y="80" width="136" height="350" as="geometry" />
        </mxCell>
        <mxCell id="xpohgX7cxrmQHjnJIRxA-23" value="Insights" style="image;aspect=fixed;html=1;points=[];align=center;fontSize=12;image=img/lib/azure2/devops/Application_Insights.svg;strokeColor=default;verticalAlign=top;fontFamily=Helvetica;fontColor=default;labelBackgroundColor=default;fillColor=default;" parent="xBXIBfyzmno2x9TjSAHg-13" vertex="1">
          <mxGeometry x="41" y="20" width="44" height="63" as="geometry" />
        </mxCell>
        <mxCell id="xpohgX7cxrmQHjnJIRxA-24" value="Monitor" style="image;aspect=fixed;html=1;points=[];align=center;fontSize=12;image=img/lib/azure2/management_governance/Monitor.svg;strokeColor=default;verticalAlign=top;fontFamily=Helvetica;fontColor=default;labelBackgroundColor=default;fillColor=default;" parent="xBXIBfyzmno2x9TjSAHg-13" vertex="1">
          <mxGeometry x="31" y="139.5" width="64" height="64" as="geometry" />
        </mxCell>
        <mxCell id="xBXIBfyzmno2x9TjSAHg-5" value="Log Analytics" style="image;aspect=fixed;html=1;points=[];align=center;fontSize=12;image=img/lib/azure2/analytics/Log_Analytics_Workspaces.svg;" vertex="1" parent="xBXIBfyzmno2x9TjSAHg-13">
          <mxGeometry x="41" y="249.5" width="64" height="64" as="geometry" />
        </mxCell>
        <mxCell id="xpohgX7cxrmQHjnJIRxA-21" value="Blob Storage" style="verticalLabelPosition=bottom;html=1;verticalAlign=top;align=center;strokeColor=none;fillColor=#00BEF2;shape=mxgraph.azure.storage_blob;fontFamily=Helvetica;fontSize=12;fontColor=default;labelBackgroundColor=default;" parent="xpohgX7cxrmQHjnJIRxA-10" vertex="1">
          <mxGeometry x="390" y="361.25" width="50" height="45" as="geometry" />
        </mxCell>
        <mxCell id="xpohgX7cxrmQHjnJIRxA-18" value="Offline sync" style="verticalLabelPosition=bottom;html=1;verticalAlign=top;align=center;strokeColor=none;fillColor=#00BEF2;shape=mxgraph.azure.sql_datasync;fontFamily=Helvetica;fontSize=12;fontColor=default;labelBackgroundColor=default;" parent="xpohgX7cxrmQHjnJIRxA-10" vertex="1">
          <mxGeometry x="125.25000000000001" y="356.25" width="37.5" height="50" as="geometry" />
        </mxCell>
        <mxCell id="xBXIBfyzmno2x9TjSAHg-1" value="Azure Cache&amp;nbsp;&lt;div&gt;for Redis&lt;/div&gt;" style="image;aspect=fixed;html=1;points=[];align=center;fontSize=12;image=img/lib/azure2/databases/Cache_Redis.svg;" vertex="1" parent="xpohgX7cxrmQHjnJIRxA-10">
          <mxGeometry x="225.22999999999996" y="360" width="52.31" height="42.5" as="geometry" />
        </mxCell>
        <mxCell id="xBXIBfyzmno2x9TjSAHg-117" value="Azure&amp;nbsp;&lt;div&gt;AI Search&lt;/div&gt;" style="image;aspect=fixed;html=1;points=[];align=center;fontSize=12;image=img/lib/azure2/app_services/Search_Services.svg;" vertex="1" parent="xpohgX7cxrmQHjnJIRxA-10">
          <mxGeometry x="307" y="357.13" width="68" height="49.120000000000005" as="geometry" />
        </mxCell>
        <mxCell id="xBXIBfyzmno2x9TjSAHg-91" style="edgeStyle=orthogonalEdgeStyle;rounded=0;orthogonalLoop=1;jettySize=auto;html=1;entryX=0.918;entryY=0.256;entryDx=0;entryDy=0;entryPerimeter=0;" edge="1" parent="1" source="xBXIBfyzmno2x9TjSAHg-86" target="xBXIBfyzmno2x9TjSAHg-48">
          <mxGeometry relative="1" as="geometry">
            <Array as="points">
              <mxPoint x="1182" y="1007" />
            </Array>
          </mxGeometry>
        </mxCell>
        <mxCell id="xBXIBfyzmno2x9TjSAHg-86" value="Azure App Service" style="image;aspect=fixed;html=1;points=[];align=center;fontSize=12;image=img/lib/azure2/app_services/App_Service_Environments.svg;" vertex="1" parent="1">
          <mxGeometry x="1134" y="657" width="64" height="64" as="geometry" />
        </mxCell>
        <mxCell id="xBXIBfyzmno2x9TjSAHg-111" style="edgeStyle=orthogonalEdgeStyle;rounded=0;orthogonalLoop=1;jettySize=auto;html=1;entryX=0.99;entryY=0.496;entryDx=0;entryDy=0;entryPerimeter=0;" edge="1" parent="1" source="xpohgX7cxrmQHjnJIRxA-20" target="xpohgX7cxrmQHjnJIRxA-5">
          <mxGeometry relative="1" as="geometry">
            <Array as="points">
              <mxPoint x="1001" y="172" />
            </Array>
          </mxGeometry>
        </mxCell>
        <mxCell id="xpohgX7cxrmQHjnJIRxA-20" value="Browser" style="image;aspect=fixed;html=1;points=[];align=center;fontSize=12;image=img/lib/azure2/general/Browser.svg;strokeColor=default;verticalAlign=top;fontFamily=Helvetica;fontColor=default;labelBackgroundColor=default;fillColor=default;" parent="1" vertex="1">
          <mxGeometry x="968" y="41" width="65" height="52" as="geometry" />
        </mxCell>
        <mxCell id="xBXIBfyzmno2x9TjSAHg-112" value="CI/CD" style="image;sketch=0;aspect=fixed;html=1;points=[];align=center;fontSize=12;image=img/lib/mscae/Azure_Pipelines.svg;" vertex="1" parent="1">
          <mxGeometry x="1263" y="41" width="50" height="50" as="geometry" />
        </mxCell>
        <mxCell id="xBXIBfyzmno2x9TjSAHg-116" style="edgeStyle=orthogonalEdgeStyle;rounded=0;orthogonalLoop=1;jettySize=auto;html=1;entryX=0.989;entryY=0.475;entryDx=0;entryDy=0;entryPerimeter=0;" edge="1" parent="1" source="xpohgX7cxrmQHjnJIRxA-21" target="xBXIBfyzmno2x9TjSAHg-2">
          <mxGeometry relative="1" as="geometry">
            <Array as="points">
              <mxPoint x="617" y="687" />
            </Array>
          </mxGeometry>
        </mxCell>
        <mxCell id="xBXIBfyzmno2x9TjSAHg-118" style="edgeStyle=orthogonalEdgeStyle;rounded=0;orthogonalLoop=1;jettySize=auto;html=1;entryX=0.521;entryY=-0.052;entryDx=0;entryDy=0;entryPerimeter=0;" edge="1" parent="1" source="xBXIBfyzmno2x9TjSAHg-2" target="xBXIBfyzmno2x9TjSAHg-117">
          <mxGeometry relative="1" as="geometry">
            <Array as="points">
              <mxPoint x="544" y="710" />
            </Array>
          </mxGeometry>
        </mxCell>
        <mxCell id="xBXIBfyzmno2x9TjSAHg-124" style="edgeStyle=orthogonalEdgeStyle;rounded=0;orthogonalLoop=1;jettySize=auto;html=1;entryX=0.477;entryY=0.035;entryDx=0;entryDy=0;entryPerimeter=0;" edge="1" parent="1" source="xBXIBfyzmno2x9TjSAHg-86" target="xBXIBfyzmno2x9TjSAHg-123">
          <mxGeometry relative="1" as="geometry">
            <Array as="points">
              <mxPoint x="1234" y="710" />
            </Array>
          </mxGeometry>
        </mxCell>
      </root>
    </mxGraphModel>
  </diagram>
</mxfile>
